<mxfile host="app.diagrams.net" modified="2023-05-09T02:12:34.070Z" agent="Mozilla/5.0 (Windows NT 10.0; Win64; x64) AppleWebKit/537.36 (KHTML, like Gecko) Chrome/112.0.0.0 Safari/537.36" etag="szYZJqsQkymYAAv5z6H0" version="21.1.5" type="device">
  <diagram name="Page-1" id="nwvLKzF_pXVNDO6YJmgc">
    <mxGraphModel dx="3450" dy="2015" grid="1" gridSize="10" guides="1" tooltips="1" connect="1" arrows="1" fold="1" page="1" pageScale="1" pageWidth="850" pageHeight="1100" math="0" shadow="0">
      <root>
        <mxCell id="0" />
        <mxCell id="1" parent="0" />
        <mxCell id="HupzdPpE1W8kRD50MGGw-1" value="user" style="shape=table;startSize=30;container=1;collapsible=1;childLayout=tableLayout;fixedRows=1;rowLines=0;fontStyle=1;align=center;resizeLast=1;" parent="1" vertex="1">
          <mxGeometry x="220" y="50" width="260" height="420" as="geometry" />
        </mxCell>
        <mxCell id="HupzdPpE1W8kRD50MGGw-2" value="" style="shape=partialRectangle;collapsible=0;dropTarget=0;pointerEvents=0;fillColor=none;points=[[0,0.5],[1,0.5]];portConstraint=eastwest;top=0;left=0;right=0;bottom=1;" parent="HupzdPpE1W8kRD50MGGw-1" vertex="1">
          <mxGeometry y="30" width="260" height="30" as="geometry" />
        </mxCell>
        <mxCell id="HupzdPpE1W8kRD50MGGw-3" value="PK" style="shape=partialRectangle;overflow=hidden;connectable=0;fillColor=none;top=0;left=0;bottom=0;right=0;fontStyle=1;" parent="HupzdPpE1W8kRD50MGGw-2" vertex="1">
          <mxGeometry width="30" height="30" as="geometry">
            <mxRectangle width="30" height="30" as="alternateBounds" />
          </mxGeometry>
        </mxCell>
        <mxCell id="HupzdPpE1W8kRD50MGGw-4" value="id int NOT NULL AUTO INC" style="shape=partialRectangle;overflow=hidden;connectable=0;fillColor=none;top=0;left=0;bottom=0;right=0;align=left;spacingLeft=6;fontStyle=5;" parent="HupzdPpE1W8kRD50MGGw-2" vertex="1">
          <mxGeometry x="30" width="230" height="30" as="geometry">
            <mxRectangle width="230" height="30" as="alternateBounds" />
          </mxGeometry>
        </mxCell>
        <mxCell id="HupzdPpE1W8kRD50MGGw-5" value="" style="shape=partialRectangle;collapsible=0;dropTarget=0;pointerEvents=0;fillColor=none;points=[[0,0.5],[1,0.5]];portConstraint=eastwest;top=0;left=0;right=0;bottom=0;" parent="HupzdPpE1W8kRD50MGGw-1" vertex="1">
          <mxGeometry y="60" width="260" height="30" as="geometry" />
        </mxCell>
        <mxCell id="HupzdPpE1W8kRD50MGGw-6" value="FK" style="shape=partialRectangle;overflow=hidden;connectable=0;fillColor=none;top=0;left=0;bottom=0;right=0;" parent="HupzdPpE1W8kRD50MGGw-5" vertex="1">
          <mxGeometry width="30" height="30" as="geometry">
            <mxRectangle width="30" height="30" as="alternateBounds" />
          </mxGeometry>
        </mxCell>
        <mxCell id="HupzdPpE1W8kRD50MGGw-7" value="role_id int NOT NULL" style="shape=partialRectangle;overflow=hidden;connectable=0;fillColor=none;top=0;left=0;bottom=0;right=0;align=left;spacingLeft=6;" parent="HupzdPpE1W8kRD50MGGw-5" vertex="1">
          <mxGeometry x="30" width="230" height="30" as="geometry">
            <mxRectangle width="230" height="30" as="alternateBounds" />
          </mxGeometry>
        </mxCell>
        <mxCell id="HupzdPpE1W8kRD50MGGw-32" value="" style="shape=partialRectangle;collapsible=0;dropTarget=0;pointerEvents=0;fillColor=none;points=[[0,0.5],[1,0.5]];portConstraint=eastwest;top=0;left=0;right=0;bottom=0;" parent="HupzdPpE1W8kRD50MGGw-1" vertex="1">
          <mxGeometry y="90" width="260" height="30" as="geometry" />
        </mxCell>
        <mxCell id="HupzdPpE1W8kRD50MGGw-33" value="" style="shape=partialRectangle;overflow=hidden;connectable=0;fillColor=none;top=0;left=0;bottom=0;right=0;" parent="HupzdPpE1W8kRD50MGGw-32" vertex="1">
          <mxGeometry width="30" height="30" as="geometry">
            <mxRectangle width="30" height="30" as="alternateBounds" />
          </mxGeometry>
        </mxCell>
        <mxCell id="HupzdPpE1W8kRD50MGGw-34" value="username char(50) NOT NULL" style="shape=partialRectangle;overflow=hidden;connectable=0;fillColor=none;top=0;left=0;bottom=0;right=0;align=left;spacingLeft=6;" parent="HupzdPpE1W8kRD50MGGw-32" vertex="1">
          <mxGeometry x="30" width="230" height="30" as="geometry">
            <mxRectangle width="230" height="30" as="alternateBounds" />
          </mxGeometry>
        </mxCell>
        <mxCell id="HupzdPpE1W8kRD50MGGw-8" value="" style="shape=partialRectangle;collapsible=0;dropTarget=0;pointerEvents=0;fillColor=none;points=[[0,0.5],[1,0.5]];portConstraint=eastwest;top=0;left=0;right=0;bottom=0;" parent="HupzdPpE1W8kRD50MGGw-1" vertex="1">
          <mxGeometry y="120" width="260" height="30" as="geometry" />
        </mxCell>
        <mxCell id="HupzdPpE1W8kRD50MGGw-9" value="" style="shape=partialRectangle;overflow=hidden;connectable=0;fillColor=none;top=0;left=0;bottom=0;right=0;" parent="HupzdPpE1W8kRD50MGGw-8" vertex="1">
          <mxGeometry width="30" height="30" as="geometry">
            <mxRectangle width="30" height="30" as="alternateBounds" />
          </mxGeometry>
        </mxCell>
        <mxCell id="HupzdPpE1W8kRD50MGGw-10" value="password char(50) NOT NULL" style="shape=partialRectangle;overflow=hidden;connectable=0;fillColor=none;top=0;left=0;bottom=0;right=0;align=left;spacingLeft=6;" parent="HupzdPpE1W8kRD50MGGw-8" vertex="1">
          <mxGeometry x="30" width="230" height="30" as="geometry">
            <mxRectangle width="230" height="30" as="alternateBounds" />
          </mxGeometry>
        </mxCell>
        <mxCell id="HupzdPpE1W8kRD50MGGw-11" value="" style="shape=partialRectangle;collapsible=0;dropTarget=0;pointerEvents=0;fillColor=none;points=[[0,0.5],[1,0.5]];portConstraint=eastwest;top=0;left=0;right=0;bottom=0;" parent="HupzdPpE1W8kRD50MGGw-1" vertex="1">
          <mxGeometry y="150" width="260" height="30" as="geometry" />
        </mxCell>
        <mxCell id="HupzdPpE1W8kRD50MGGw-12" value="" style="shape=partialRectangle;overflow=hidden;connectable=0;fillColor=none;top=0;left=0;bottom=0;right=0;" parent="HupzdPpE1W8kRD50MGGw-11" vertex="1">
          <mxGeometry width="30" height="30" as="geometry">
            <mxRectangle width="30" height="30" as="alternateBounds" />
          </mxGeometry>
        </mxCell>
        <mxCell id="HupzdPpE1W8kRD50MGGw-13" value="name char(50) NOT NULL" style="shape=partialRectangle;overflow=hidden;connectable=0;fillColor=none;top=0;left=0;bottom=0;right=0;align=left;spacingLeft=6;" parent="HupzdPpE1W8kRD50MGGw-11" vertex="1">
          <mxGeometry x="30" width="230" height="30" as="geometry">
            <mxRectangle width="230" height="30" as="alternateBounds" />
          </mxGeometry>
        </mxCell>
        <mxCell id="HupzdPpE1W8kRD50MGGw-14" value="" style="shape=partialRectangle;collapsible=0;dropTarget=0;pointerEvents=0;fillColor=none;points=[[0,0.5],[1,0.5]];portConstraint=eastwest;top=0;left=0;right=0;bottom=0;" parent="HupzdPpE1W8kRD50MGGw-1" vertex="1">
          <mxGeometry y="180" width="260" height="30" as="geometry" />
        </mxCell>
        <mxCell id="HupzdPpE1W8kRD50MGGw-15" value="" style="shape=partialRectangle;overflow=hidden;connectable=0;fillColor=none;top=0;left=0;bottom=0;right=0;" parent="HupzdPpE1W8kRD50MGGw-14" vertex="1">
          <mxGeometry width="30" height="30" as="geometry">
            <mxRectangle width="30" height="30" as="alternateBounds" />
          </mxGeometry>
        </mxCell>
        <mxCell id="HupzdPpE1W8kRD50MGGw-16" value="date_of_birth Date NULL" style="shape=partialRectangle;overflow=hidden;connectable=0;fillColor=none;top=0;left=0;bottom=0;right=0;align=left;spacingLeft=6;" parent="HupzdPpE1W8kRD50MGGw-14" vertex="1">
          <mxGeometry x="30" width="230" height="30" as="geometry">
            <mxRectangle width="230" height="30" as="alternateBounds" />
          </mxGeometry>
        </mxCell>
        <mxCell id="HupzdPpE1W8kRD50MGGw-17" value="" style="shape=partialRectangle;collapsible=0;dropTarget=0;pointerEvents=0;fillColor=none;points=[[0,0.5],[1,0.5]];portConstraint=eastwest;top=0;left=0;right=0;bottom=0;" parent="HupzdPpE1W8kRD50MGGw-1" vertex="1">
          <mxGeometry y="210" width="260" height="30" as="geometry" />
        </mxCell>
        <mxCell id="HupzdPpE1W8kRD50MGGw-18" value="" style="shape=partialRectangle;overflow=hidden;connectable=0;fillColor=none;top=0;left=0;bottom=0;right=0;" parent="HupzdPpE1W8kRD50MGGw-17" vertex="1">
          <mxGeometry width="30" height="30" as="geometry">
            <mxRectangle width="30" height="30" as="alternateBounds" />
          </mxGeometry>
        </mxCell>
        <mxCell id="HupzdPpE1W8kRD50MGGw-19" value="bio char(200) NULL" style="shape=partialRectangle;overflow=hidden;connectable=0;fillColor=none;top=0;left=0;bottom=0;right=0;align=left;spacingLeft=6;" parent="HupzdPpE1W8kRD50MGGw-17" vertex="1">
          <mxGeometry x="30" width="230" height="30" as="geometry">
            <mxRectangle width="230" height="30" as="alternateBounds" />
          </mxGeometry>
        </mxCell>
        <mxCell id="HupzdPpE1W8kRD50MGGw-20" value="" style="shape=partialRectangle;collapsible=0;dropTarget=0;pointerEvents=0;fillColor=none;points=[[0,0.5],[1,0.5]];portConstraint=eastwest;top=0;left=0;right=0;bottom=0;" parent="HupzdPpE1W8kRD50MGGw-1" vertex="1">
          <mxGeometry y="240" width="260" height="30" as="geometry" />
        </mxCell>
        <mxCell id="HupzdPpE1W8kRD50MGGw-21" value="" style="shape=partialRectangle;overflow=hidden;connectable=0;fillColor=none;top=0;left=0;bottom=0;right=0;" parent="HupzdPpE1W8kRD50MGGw-20" vertex="1">
          <mxGeometry width="30" height="30" as="geometry">
            <mxRectangle width="30" height="30" as="alternateBounds" />
          </mxGeometry>
        </mxCell>
        <mxCell id="HupzdPpE1W8kRD50MGGw-22" value="profile_pic bytea NULL" style="shape=partialRectangle;overflow=hidden;connectable=0;fillColor=none;top=0;left=0;bottom=0;right=0;align=left;spacingLeft=6;" parent="HupzdPpE1W8kRD50MGGw-20" vertex="1">
          <mxGeometry x="30" width="230" height="30" as="geometry">
            <mxRectangle width="230" height="30" as="alternateBounds" />
          </mxGeometry>
        </mxCell>
        <mxCell id="hOpUqKlX3ZMkkQljVJP--1" value="" style="shape=partialRectangle;collapsible=0;dropTarget=0;pointerEvents=0;fillColor=none;points=[[0,0.5],[1,0.5]];portConstraint=eastwest;top=0;left=0;right=0;bottom=0;" parent="HupzdPpE1W8kRD50MGGw-1" vertex="1">
          <mxGeometry y="270" width="260" height="30" as="geometry" />
        </mxCell>
        <mxCell id="hOpUqKlX3ZMkkQljVJP--2" value="" style="shape=partialRectangle;overflow=hidden;connectable=0;fillColor=none;top=0;left=0;bottom=0;right=0;" parent="hOpUqKlX3ZMkkQljVJP--1" vertex="1">
          <mxGeometry width="30" height="30" as="geometry">
            <mxRectangle width="30" height="30" as="alternateBounds" />
          </mxGeometry>
        </mxCell>
        <mxCell id="hOpUqKlX3ZMkkQljVJP--3" value="email char(50) NOT NULL" style="shape=partialRectangle;overflow=hidden;connectable=0;fillColor=none;top=0;left=0;bottom=0;right=0;align=left;spacingLeft=6;" parent="hOpUqKlX3ZMkkQljVJP--1" vertex="1">
          <mxGeometry x="30" width="230" height="30" as="geometry">
            <mxRectangle width="230" height="30" as="alternateBounds" />
          </mxGeometry>
        </mxCell>
        <mxCell id="HupzdPpE1W8kRD50MGGw-23" value="" style="shape=partialRectangle;collapsible=0;dropTarget=0;pointerEvents=0;fillColor=none;points=[[0,0.5],[1,0.5]];portConstraint=eastwest;top=0;left=0;right=0;bottom=0;" parent="HupzdPpE1W8kRD50MGGw-1" vertex="1">
          <mxGeometry y="300" width="260" height="30" as="geometry" />
        </mxCell>
        <mxCell id="HupzdPpE1W8kRD50MGGw-24" value="" style="shape=partialRectangle;overflow=hidden;connectable=0;fillColor=none;top=0;left=0;bottom=0;right=0;" parent="HupzdPpE1W8kRD50MGGw-23" vertex="1">
          <mxGeometry width="30" height="30" as="geometry">
            <mxRectangle width="30" height="30" as="alternateBounds" />
          </mxGeometry>
        </mxCell>
        <mxCell id="HupzdPpE1W8kRD50MGGw-25" value="gender char(10) NOT NULL" style="shape=partialRectangle;overflow=hidden;connectable=0;fillColor=none;top=0;left=0;bottom=0;right=0;align=left;spacingLeft=6;" parent="HupzdPpE1W8kRD50MGGw-23" vertex="1">
          <mxGeometry x="30" width="230" height="30" as="geometry">
            <mxRectangle width="230" height="30" as="alternateBounds" />
          </mxGeometry>
        </mxCell>
        <mxCell id="hOpUqKlX3ZMkkQljVJP--4" value="" style="shape=partialRectangle;collapsible=0;dropTarget=0;pointerEvents=0;fillColor=none;points=[[0,0.5],[1,0.5]];portConstraint=eastwest;top=0;left=0;right=0;bottom=0;" parent="HupzdPpE1W8kRD50MGGw-1" vertex="1">
          <mxGeometry y="330" width="260" height="30" as="geometry" />
        </mxCell>
        <mxCell id="hOpUqKlX3ZMkkQljVJP--5" value="" style="shape=partialRectangle;overflow=hidden;connectable=0;fillColor=none;top=0;left=0;bottom=0;right=0;" parent="hOpUqKlX3ZMkkQljVJP--4" vertex="1">
          <mxGeometry width="30" height="30" as="geometry">
            <mxRectangle width="30" height="30" as="alternateBounds" />
          </mxGeometry>
        </mxCell>
        <mxCell id="hOpUqKlX3ZMkkQljVJP--6" value="phone char(50) NOT NULL" style="shape=partialRectangle;overflow=hidden;connectable=0;fillColor=none;top=0;left=0;bottom=0;right=0;align=left;spacingLeft=6;" parent="hOpUqKlX3ZMkkQljVJP--4" vertex="1">
          <mxGeometry x="30" width="230" height="30" as="geometry">
            <mxRectangle width="230" height="30" as="alternateBounds" />
          </mxGeometry>
        </mxCell>
        <mxCell id="HupzdPpE1W8kRD50MGGw-26" value="" style="shape=partialRectangle;collapsible=0;dropTarget=0;pointerEvents=0;fillColor=none;points=[[0,0.5],[1,0.5]];portConstraint=eastwest;top=0;left=0;right=0;bottom=0;" parent="HupzdPpE1W8kRD50MGGw-1" vertex="1">
          <mxGeometry y="360" width="260" height="30" as="geometry" />
        </mxCell>
        <mxCell id="HupzdPpE1W8kRD50MGGw-27" value="" style="shape=partialRectangle;overflow=hidden;connectable=0;fillColor=none;top=0;left=0;bottom=0;right=0;" parent="HupzdPpE1W8kRD50MGGw-26" vertex="1">
          <mxGeometry width="30" height="30" as="geometry">
            <mxRectangle width="30" height="30" as="alternateBounds" />
          </mxGeometry>
        </mxCell>
        <mxCell id="HupzdPpE1W8kRD50MGGw-28" value="created_at timestamp DEFAULT CURR" style="shape=partialRectangle;overflow=hidden;connectable=0;fillColor=none;top=0;left=0;bottom=0;right=0;align=left;spacingLeft=6;" parent="HupzdPpE1W8kRD50MGGw-26" vertex="1">
          <mxGeometry x="30" width="230" height="30" as="geometry">
            <mxRectangle width="230" height="30" as="alternateBounds" />
          </mxGeometry>
        </mxCell>
        <mxCell id="HupzdPpE1W8kRD50MGGw-29" value="" style="shape=partialRectangle;collapsible=0;dropTarget=0;pointerEvents=0;fillColor=none;points=[[0,0.5],[1,0.5]];portConstraint=eastwest;top=0;left=0;right=0;bottom=0;" parent="HupzdPpE1W8kRD50MGGw-1" vertex="1">
          <mxGeometry y="390" width="260" height="30" as="geometry" />
        </mxCell>
        <mxCell id="HupzdPpE1W8kRD50MGGw-30" value="" style="shape=partialRectangle;overflow=hidden;connectable=0;fillColor=none;top=0;left=0;bottom=0;right=0;" parent="HupzdPpE1W8kRD50MGGw-29" vertex="1">
          <mxGeometry width="30" height="30" as="geometry">
            <mxRectangle width="30" height="30" as="alternateBounds" />
          </mxGeometry>
        </mxCell>
        <mxCell id="HupzdPpE1W8kRD50MGGw-31" value="updated_at timestamp NULL" style="shape=partialRectangle;overflow=hidden;connectable=0;fillColor=none;top=0;left=0;bottom=0;right=0;align=left;spacingLeft=6;" parent="HupzdPpE1W8kRD50MGGw-29" vertex="1">
          <mxGeometry x="30" width="230" height="30" as="geometry">
            <mxRectangle width="230" height="30" as="alternateBounds" />
          </mxGeometry>
        </mxCell>
        <mxCell id="HupzdPpE1W8kRD50MGGw-45" style="edgeStyle=orthogonalEdgeStyle;rounded=0;orthogonalLoop=1;jettySize=auto;html=1;endArrow=ERone;endFill=0;startArrow=ERone;startFill=0;" parent="1" source="HupzdPpE1W8kRD50MGGw-35" target="HupzdPpE1W8kRD50MGGw-5" edge="1">
          <mxGeometry relative="1" as="geometry" />
        </mxCell>
        <mxCell id="HupzdPpE1W8kRD50MGGw-35" value="role" style="shape=table;startSize=30;container=1;collapsible=1;childLayout=tableLayout;fixedRows=1;rowLines=0;fontStyle=1;align=center;resizeLast=1;" parent="1" vertex="1">
          <mxGeometry x="590" y="70" width="230" height="120" as="geometry" />
        </mxCell>
        <mxCell id="HupzdPpE1W8kRD50MGGw-36" value="" style="shape=partialRectangle;collapsible=0;dropTarget=0;pointerEvents=0;fillColor=none;points=[[0,0.5],[1,0.5]];portConstraint=eastwest;top=0;left=0;right=0;bottom=1;" parent="HupzdPpE1W8kRD50MGGw-35" vertex="1">
          <mxGeometry y="30" width="230" height="30" as="geometry" />
        </mxCell>
        <mxCell id="HupzdPpE1W8kRD50MGGw-37" value="PK" style="shape=partialRectangle;overflow=hidden;connectable=0;fillColor=none;top=0;left=0;bottom=0;right=0;fontStyle=1;" parent="HupzdPpE1W8kRD50MGGw-36" vertex="1">
          <mxGeometry width="30" height="30" as="geometry">
            <mxRectangle width="30" height="30" as="alternateBounds" />
          </mxGeometry>
        </mxCell>
        <mxCell id="HupzdPpE1W8kRD50MGGw-38" value="id int NOT NULL AUTO INC" style="shape=partialRectangle;overflow=hidden;connectable=0;fillColor=none;top=0;left=0;bottom=0;right=0;align=left;spacingLeft=6;fontStyle=5;" parent="HupzdPpE1W8kRD50MGGw-36" vertex="1">
          <mxGeometry x="30" width="200" height="30" as="geometry">
            <mxRectangle width="200" height="30" as="alternateBounds" />
          </mxGeometry>
        </mxCell>
        <mxCell id="HupzdPpE1W8kRD50MGGw-39" value="" style="shape=partialRectangle;collapsible=0;dropTarget=0;pointerEvents=0;fillColor=none;points=[[0,0.5],[1,0.5]];portConstraint=eastwest;top=0;left=0;right=0;bottom=0;" parent="HupzdPpE1W8kRD50MGGw-35" vertex="1">
          <mxGeometry y="60" width="230" height="30" as="geometry" />
        </mxCell>
        <mxCell id="HupzdPpE1W8kRD50MGGw-40" value="" style="shape=partialRectangle;overflow=hidden;connectable=0;fillColor=none;top=0;left=0;bottom=0;right=0;" parent="HupzdPpE1W8kRD50MGGw-39" vertex="1">
          <mxGeometry width="30" height="30" as="geometry">
            <mxRectangle width="30" height="30" as="alternateBounds" />
          </mxGeometry>
        </mxCell>
        <mxCell id="HupzdPpE1W8kRD50MGGw-41" value="role char(50) NOT NULL" style="shape=partialRectangle;overflow=hidden;connectable=0;fillColor=none;top=0;left=0;bottom=0;right=0;align=left;spacingLeft=6;" parent="HupzdPpE1W8kRD50MGGw-39" vertex="1">
          <mxGeometry x="30" width="200" height="30" as="geometry">
            <mxRectangle width="200" height="30" as="alternateBounds" />
          </mxGeometry>
        </mxCell>
        <mxCell id="HupzdPpE1W8kRD50MGGw-42" value="" style="shape=partialRectangle;collapsible=0;dropTarget=0;pointerEvents=0;fillColor=none;points=[[0,0.5],[1,0.5]];portConstraint=eastwest;top=0;left=0;right=0;bottom=0;" parent="HupzdPpE1W8kRD50MGGw-35" vertex="1">
          <mxGeometry y="90" width="230" height="30" as="geometry" />
        </mxCell>
        <mxCell id="HupzdPpE1W8kRD50MGGw-43" value="" style="shape=partialRectangle;overflow=hidden;connectable=0;fillColor=none;top=0;left=0;bottom=0;right=0;" parent="HupzdPpE1W8kRD50MGGw-42" vertex="1">
          <mxGeometry width="30" height="30" as="geometry">
            <mxRectangle width="30" height="30" as="alternateBounds" />
          </mxGeometry>
        </mxCell>
        <mxCell id="HupzdPpE1W8kRD50MGGw-44" value="" style="shape=partialRectangle;overflow=hidden;connectable=0;fillColor=none;top=0;left=0;bottom=0;right=0;align=left;spacingLeft=6;" parent="HupzdPpE1W8kRD50MGGw-42" vertex="1">
          <mxGeometry x="30" width="200" height="30" as="geometry">
            <mxRectangle width="200" height="30" as="alternateBounds" />
          </mxGeometry>
        </mxCell>
        <mxCell id="HupzdPpE1W8kRD50MGGw-46" value="item" style="shape=table;startSize=30;container=1;collapsible=1;childLayout=tableLayout;fixedRows=1;rowLines=0;fontStyle=1;align=center;resizeLast=1;" parent="1" vertex="1">
          <mxGeometry x="-510" y="120" width="260" height="300" as="geometry" />
        </mxCell>
        <mxCell id="HupzdPpE1W8kRD50MGGw-47" value="" style="shape=partialRectangle;collapsible=0;dropTarget=0;pointerEvents=0;fillColor=none;points=[[0,0.5],[1,0.5]];portConstraint=eastwest;top=0;left=0;right=0;bottom=1;" parent="HupzdPpE1W8kRD50MGGw-46" vertex="1">
          <mxGeometry y="30" width="260" height="30" as="geometry" />
        </mxCell>
        <mxCell id="HupzdPpE1W8kRD50MGGw-48" value="PK" style="shape=partialRectangle;overflow=hidden;connectable=0;fillColor=none;top=0;left=0;bottom=0;right=0;fontStyle=1;" parent="HupzdPpE1W8kRD50MGGw-47" vertex="1">
          <mxGeometry width="30" height="30" as="geometry">
            <mxRectangle width="30" height="30" as="alternateBounds" />
          </mxGeometry>
        </mxCell>
        <mxCell id="HupzdPpE1W8kRD50MGGw-49" value="id int NOT NULL AUTO INC" style="shape=partialRectangle;overflow=hidden;connectable=0;fillColor=none;top=0;left=0;bottom=0;right=0;align=left;spacingLeft=6;fontStyle=5;" parent="HupzdPpE1W8kRD50MGGw-47" vertex="1">
          <mxGeometry x="30" width="230" height="30" as="geometry">
            <mxRectangle width="230" height="30" as="alternateBounds" />
          </mxGeometry>
        </mxCell>
        <mxCell id="HupzdPpE1W8kRD50MGGw-50" value="" style="shape=partialRectangle;collapsible=0;dropTarget=0;pointerEvents=0;fillColor=none;points=[[0,0.5],[1,0.5]];portConstraint=eastwest;top=0;left=0;right=0;bottom=0;" parent="HupzdPpE1W8kRD50MGGw-46" vertex="1">
          <mxGeometry y="60" width="260" height="30" as="geometry" />
        </mxCell>
        <mxCell id="HupzdPpE1W8kRD50MGGw-51" value="FK" style="shape=partialRectangle;overflow=hidden;connectable=0;fillColor=none;top=0;left=0;bottom=0;right=0;" parent="HupzdPpE1W8kRD50MGGw-50" vertex="1">
          <mxGeometry width="30" height="30" as="geometry">
            <mxRectangle width="30" height="30" as="alternateBounds" />
          </mxGeometry>
        </mxCell>
        <mxCell id="HupzdPpE1W8kRD50MGGw-52" value="type_id int NOT NULL" style="shape=partialRectangle;overflow=hidden;connectable=0;fillColor=none;top=0;left=0;bottom=0;right=0;align=left;spacingLeft=6;" parent="HupzdPpE1W8kRD50MGGw-50" vertex="1">
          <mxGeometry x="30" width="230" height="30" as="geometry">
            <mxRectangle width="230" height="30" as="alternateBounds" />
          </mxGeometry>
        </mxCell>
        <mxCell id="HupzdPpE1W8kRD50MGGw-65" value="" style="shape=partialRectangle;collapsible=0;dropTarget=0;pointerEvents=0;fillColor=none;points=[[0,0.5],[1,0.5]];portConstraint=eastwest;top=0;left=0;right=0;bottom=0;" parent="HupzdPpE1W8kRD50MGGw-46" vertex="1">
          <mxGeometry y="90" width="260" height="30" as="geometry" />
        </mxCell>
        <mxCell id="HupzdPpE1W8kRD50MGGw-66" value="" style="shape=partialRectangle;overflow=hidden;connectable=0;fillColor=none;top=0;left=0;bottom=0;right=0;" parent="HupzdPpE1W8kRD50MGGw-65" vertex="1">
          <mxGeometry width="30" height="30" as="geometry">
            <mxRectangle width="30" height="30" as="alternateBounds" />
          </mxGeometry>
        </mxCell>
        <mxCell id="HupzdPpE1W8kRD50MGGw-67" value="item_name char(200) NOT NULL" style="shape=partialRectangle;overflow=hidden;connectable=0;fillColor=none;top=0;left=0;bottom=0;right=0;align=left;spacingLeft=6;" parent="HupzdPpE1W8kRD50MGGw-65" vertex="1">
          <mxGeometry x="30" width="230" height="30" as="geometry">
            <mxRectangle width="230" height="30" as="alternateBounds" />
          </mxGeometry>
        </mxCell>
        <mxCell id="HupzdPpE1W8kRD50MGGw-53" value="" style="shape=partialRectangle;collapsible=0;dropTarget=0;pointerEvents=0;fillColor=none;points=[[0,0.5],[1,0.5]];portConstraint=eastwest;top=0;left=0;right=0;bottom=0;" parent="HupzdPpE1W8kRD50MGGw-46" vertex="1">
          <mxGeometry y="120" width="260" height="30" as="geometry" />
        </mxCell>
        <mxCell id="HupzdPpE1W8kRD50MGGw-54" value="" style="shape=partialRectangle;overflow=hidden;connectable=0;fillColor=none;top=0;left=0;bottom=0;right=0;" parent="HupzdPpE1W8kRD50MGGw-53" vertex="1">
          <mxGeometry width="30" height="30" as="geometry">
            <mxRectangle width="30" height="30" as="alternateBounds" />
          </mxGeometry>
        </mxCell>
        <mxCell id="HupzdPpE1W8kRD50MGGw-55" value="price numeric(10,2) NOT NULL" style="shape=partialRectangle;overflow=hidden;connectable=0;fillColor=none;top=0;left=0;bottom=0;right=0;align=left;spacingLeft=6;" parent="HupzdPpE1W8kRD50MGGw-53" vertex="1">
          <mxGeometry x="30" width="230" height="30" as="geometry">
            <mxRectangle width="230" height="30" as="alternateBounds" />
          </mxGeometry>
        </mxCell>
        <mxCell id="HupzdPpE1W8kRD50MGGw-56" value="" style="shape=partialRectangle;collapsible=0;dropTarget=0;pointerEvents=0;fillColor=none;points=[[0,0.5],[1,0.5]];portConstraint=eastwest;top=0;left=0;right=0;bottom=0;" parent="HupzdPpE1W8kRD50MGGw-46" vertex="1">
          <mxGeometry y="150" width="260" height="30" as="geometry" />
        </mxCell>
        <mxCell id="HupzdPpE1W8kRD50MGGw-57" value="" style="shape=partialRectangle;overflow=hidden;connectable=0;fillColor=none;top=0;left=0;bottom=0;right=0;" parent="HupzdPpE1W8kRD50MGGw-56" vertex="1">
          <mxGeometry width="30" height="30" as="geometry">
            <mxRectangle width="30" height="30" as="alternateBounds" />
          </mxGeometry>
        </mxCell>
        <mxCell id="HupzdPpE1W8kRD50MGGw-58" value="description char(200) NULL" style="shape=partialRectangle;overflow=hidden;connectable=0;fillColor=none;top=0;left=0;bottom=0;right=0;align=left;spacingLeft=6;" parent="HupzdPpE1W8kRD50MGGw-56" vertex="1">
          <mxGeometry x="30" width="230" height="30" as="geometry">
            <mxRectangle width="230" height="30" as="alternateBounds" />
          </mxGeometry>
        </mxCell>
        <mxCell id="HupzdPpE1W8kRD50MGGw-59" value="" style="shape=partialRectangle;collapsible=0;dropTarget=0;pointerEvents=0;fillColor=none;points=[[0,0.5],[1,0.5]];portConstraint=eastwest;top=0;left=0;right=0;bottom=0;" parent="HupzdPpE1W8kRD50MGGw-46" vertex="1">
          <mxGeometry y="180" width="260" height="30" as="geometry" />
        </mxCell>
        <mxCell id="HupzdPpE1W8kRD50MGGw-60" value="" style="shape=partialRectangle;overflow=hidden;connectable=0;fillColor=none;top=0;left=0;bottom=0;right=0;" parent="HupzdPpE1W8kRD50MGGw-59" vertex="1">
          <mxGeometry width="30" height="30" as="geometry">
            <mxRectangle width="30" height="30" as="alternateBounds" />
          </mxGeometry>
        </mxCell>
        <mxCell id="HupzdPpE1W8kRD50MGGw-61" value="picture byte NULL" style="shape=partialRectangle;overflow=hidden;connectable=0;fillColor=none;top=0;left=0;bottom=0;right=0;align=left;spacingLeft=6;" parent="HupzdPpE1W8kRD50MGGw-59" vertex="1">
          <mxGeometry x="30" width="230" height="30" as="geometry">
            <mxRectangle width="230" height="30" as="alternateBounds" />
          </mxGeometry>
        </mxCell>
        <mxCell id="HupzdPpE1W8kRD50MGGw-105" value="" style="shape=partialRectangle;collapsible=0;dropTarget=0;pointerEvents=0;fillColor=none;points=[[0,0.5],[1,0.5]];portConstraint=eastwest;top=0;left=0;right=0;bottom=0;" parent="HupzdPpE1W8kRD50MGGw-46" vertex="1">
          <mxGeometry y="210" width="260" height="30" as="geometry" />
        </mxCell>
        <mxCell id="HupzdPpE1W8kRD50MGGw-106" value="" style="shape=partialRectangle;overflow=hidden;connectable=0;fillColor=none;top=0;left=0;bottom=0;right=0;" parent="HupzdPpE1W8kRD50MGGw-105" vertex="1">
          <mxGeometry width="30" height="30" as="geometry">
            <mxRectangle width="30" height="30" as="alternateBounds" />
          </mxGeometry>
        </mxCell>
        <mxCell id="HupzdPpE1W8kRD50MGGw-107" value="stock numeric(5) NULL" style="shape=partialRectangle;overflow=hidden;connectable=0;fillColor=none;top=0;left=0;bottom=0;right=0;align=left;spacingLeft=6;" parent="HupzdPpE1W8kRD50MGGw-105" vertex="1">
          <mxGeometry x="30" width="230" height="30" as="geometry">
            <mxRectangle width="230" height="30" as="alternateBounds" />
          </mxGeometry>
        </mxCell>
        <mxCell id="HupzdPpE1W8kRD50MGGw-62" value="" style="shape=partialRectangle;collapsible=0;dropTarget=0;pointerEvents=0;fillColor=none;points=[[0,0.5],[1,0.5]];portConstraint=eastwest;top=0;left=0;right=0;bottom=0;" parent="HupzdPpE1W8kRD50MGGw-46" vertex="1">
          <mxGeometry y="240" width="260" height="30" as="geometry" />
        </mxCell>
        <mxCell id="HupzdPpE1W8kRD50MGGw-63" value="" style="shape=partialRectangle;overflow=hidden;connectable=0;fillColor=none;top=0;left=0;bottom=0;right=0;" parent="HupzdPpE1W8kRD50MGGw-62" vertex="1">
          <mxGeometry width="30" height="30" as="geometry">
            <mxRectangle width="30" height="30" as="alternateBounds" />
          </mxGeometry>
        </mxCell>
        <mxCell id="HupzdPpE1W8kRD50MGGw-64" value="created_at timestamp DEFAULT CURR" style="shape=partialRectangle;overflow=hidden;connectable=0;fillColor=none;top=0;left=0;bottom=0;right=0;align=left;spacingLeft=6;" parent="HupzdPpE1W8kRD50MGGw-62" vertex="1">
          <mxGeometry x="30" width="230" height="30" as="geometry">
            <mxRectangle width="230" height="30" as="alternateBounds" />
          </mxGeometry>
        </mxCell>
        <mxCell id="HupzdPpE1W8kRD50MGGw-68" value="" style="shape=partialRectangle;collapsible=0;dropTarget=0;pointerEvents=0;fillColor=none;points=[[0,0.5],[1,0.5]];portConstraint=eastwest;top=0;left=0;right=0;bottom=0;" parent="HupzdPpE1W8kRD50MGGw-46" vertex="1">
          <mxGeometry y="270" width="260" height="30" as="geometry" />
        </mxCell>
        <mxCell id="HupzdPpE1W8kRD50MGGw-69" value="" style="shape=partialRectangle;overflow=hidden;connectable=0;fillColor=none;top=0;left=0;bottom=0;right=0;" parent="HupzdPpE1W8kRD50MGGw-68" vertex="1">
          <mxGeometry width="30" height="30" as="geometry">
            <mxRectangle width="30" height="30" as="alternateBounds" />
          </mxGeometry>
        </mxCell>
        <mxCell id="HupzdPpE1W8kRD50MGGw-70" value="updated_at timestamp NULL" style="shape=partialRectangle;overflow=hidden;connectable=0;fillColor=none;top=0;left=0;bottom=0;right=0;align=left;spacingLeft=6;" parent="HupzdPpE1W8kRD50MGGw-68" vertex="1">
          <mxGeometry x="30" width="230" height="30" as="geometry">
            <mxRectangle width="230" height="30" as="alternateBounds" />
          </mxGeometry>
        </mxCell>
        <mxCell id="HupzdPpE1W8kRD50MGGw-85" style="edgeStyle=orthogonalEdgeStyle;rounded=0;orthogonalLoop=1;jettySize=auto;html=1;entryX=0.498;entryY=1.024;entryDx=0;entryDy=0;entryPerimeter=0;startArrow=ERone;startFill=0;endArrow=ERone;endFill=0;" parent="1" source="HupzdPpE1W8kRD50MGGw-71" target="HupzdPpE1W8kRD50MGGw-68" edge="1">
          <mxGeometry relative="1" as="geometry" />
        </mxCell>
        <mxCell id="HupzdPpE1W8kRD50MGGw-71" value="item_type" style="shape=table;startSize=30;container=1;collapsible=1;childLayout=tableLayout;fixedRows=1;rowLines=0;fontStyle=1;align=center;resizeLast=1;" parent="1" vertex="1">
          <mxGeometry x="-510" y="520" width="260" height="150" as="geometry" />
        </mxCell>
        <mxCell id="HupzdPpE1W8kRD50MGGw-72" value="" style="shape=partialRectangle;collapsible=0;dropTarget=0;pointerEvents=0;fillColor=none;points=[[0,0.5],[1,0.5]];portConstraint=eastwest;top=0;left=0;right=0;bottom=1;" parent="HupzdPpE1W8kRD50MGGw-71" vertex="1">
          <mxGeometry y="30" width="260" height="30" as="geometry" />
        </mxCell>
        <mxCell id="HupzdPpE1W8kRD50MGGw-73" value="PK" style="shape=partialRectangle;overflow=hidden;connectable=0;fillColor=none;top=0;left=0;bottom=0;right=0;fontStyle=1;" parent="HupzdPpE1W8kRD50MGGw-72" vertex="1">
          <mxGeometry width="30" height="30" as="geometry">
            <mxRectangle width="30" height="30" as="alternateBounds" />
          </mxGeometry>
        </mxCell>
        <mxCell id="HupzdPpE1W8kRD50MGGw-74" value="id int NOT NULL AUTO INC" style="shape=partialRectangle;overflow=hidden;connectable=0;fillColor=none;top=0;left=0;bottom=0;right=0;align=left;spacingLeft=6;fontStyle=5;" parent="HupzdPpE1W8kRD50MGGw-72" vertex="1">
          <mxGeometry x="30" width="230" height="30" as="geometry">
            <mxRectangle width="230" height="30" as="alternateBounds" />
          </mxGeometry>
        </mxCell>
        <mxCell id="HupzdPpE1W8kRD50MGGw-75" value="" style="shape=partialRectangle;collapsible=0;dropTarget=0;pointerEvents=0;fillColor=none;points=[[0,0.5],[1,0.5]];portConstraint=eastwest;top=0;left=0;right=0;bottom=0;" parent="HupzdPpE1W8kRD50MGGw-71" vertex="1">
          <mxGeometry y="60" width="260" height="30" as="geometry" />
        </mxCell>
        <mxCell id="HupzdPpE1W8kRD50MGGw-76" value="" style="shape=partialRectangle;overflow=hidden;connectable=0;fillColor=none;top=0;left=0;bottom=0;right=0;" parent="HupzdPpE1W8kRD50MGGw-75" vertex="1">
          <mxGeometry width="30" height="30" as="geometry">
            <mxRectangle width="30" height="30" as="alternateBounds" />
          </mxGeometry>
        </mxCell>
        <mxCell id="HupzdPpE1W8kRD50MGGw-77" value="item_type char(100) NOT NULL " style="shape=partialRectangle;overflow=hidden;connectable=0;fillColor=none;top=0;left=0;bottom=0;right=0;align=left;spacingLeft=6;" parent="HupzdPpE1W8kRD50MGGw-75" vertex="1">
          <mxGeometry x="30" width="230" height="30" as="geometry">
            <mxRectangle width="230" height="30" as="alternateBounds" />
          </mxGeometry>
        </mxCell>
        <mxCell id="HupzdPpE1W8kRD50MGGw-78" value="" style="shape=partialRectangle;collapsible=0;dropTarget=0;pointerEvents=0;fillColor=none;points=[[0,0.5],[1,0.5]];portConstraint=eastwest;top=0;left=0;right=0;bottom=0;" parent="HupzdPpE1W8kRD50MGGw-71" vertex="1">
          <mxGeometry y="90" width="260" height="30" as="geometry" />
        </mxCell>
        <mxCell id="HupzdPpE1W8kRD50MGGw-79" value="" style="shape=partialRectangle;overflow=hidden;connectable=0;fillColor=none;top=0;left=0;bottom=0;right=0;" parent="HupzdPpE1W8kRD50MGGw-78" vertex="1">
          <mxGeometry width="30" height="30" as="geometry">
            <mxRectangle width="30" height="30" as="alternateBounds" />
          </mxGeometry>
        </mxCell>
        <mxCell id="HupzdPpE1W8kRD50MGGw-80" value="created_at timestamp DEFAULT CURR" style="shape=partialRectangle;overflow=hidden;connectable=0;fillColor=none;top=0;left=0;bottom=0;right=0;align=left;spacingLeft=6;" parent="HupzdPpE1W8kRD50MGGw-78" vertex="1">
          <mxGeometry x="30" width="230" height="30" as="geometry">
            <mxRectangle width="230" height="30" as="alternateBounds" />
          </mxGeometry>
        </mxCell>
        <mxCell id="HupzdPpE1W8kRD50MGGw-82" value="" style="shape=partialRectangle;collapsible=0;dropTarget=0;pointerEvents=0;fillColor=none;points=[[0,0.5],[1,0.5]];portConstraint=eastwest;top=0;left=0;right=0;bottom=0;" parent="HupzdPpE1W8kRD50MGGw-71" vertex="1">
          <mxGeometry y="120" width="260" height="30" as="geometry" />
        </mxCell>
        <mxCell id="HupzdPpE1W8kRD50MGGw-83" value="" style="shape=partialRectangle;overflow=hidden;connectable=0;fillColor=none;top=0;left=0;bottom=0;right=0;" parent="HupzdPpE1W8kRD50MGGw-82" vertex="1">
          <mxGeometry width="30" height="30" as="geometry">
            <mxRectangle width="30" height="30" as="alternateBounds" />
          </mxGeometry>
        </mxCell>
        <mxCell id="HupzdPpE1W8kRD50MGGw-84" value="updated_at timestamp NULL" style="shape=partialRectangle;overflow=hidden;connectable=0;fillColor=none;top=0;left=0;bottom=0;right=0;align=left;spacingLeft=6;" parent="HupzdPpE1W8kRD50MGGw-82" vertex="1">
          <mxGeometry x="30" width="230" height="30" as="geometry">
            <mxRectangle width="230" height="30" as="alternateBounds" />
          </mxGeometry>
        </mxCell>
        <mxCell id="HupzdPpE1W8kRD50MGGw-86" value="transaction" style="shape=table;startSize=30;container=1;collapsible=1;childLayout=tableLayout;fixedRows=1;rowLines=0;fontStyle=1;align=center;resizeLast=1;" parent="1" vertex="1">
          <mxGeometry x="-140" y="-20" width="260" height="300" as="geometry" />
        </mxCell>
        <mxCell id="HupzdPpE1W8kRD50MGGw-87" value="" style="shape=partialRectangle;collapsible=0;dropTarget=0;pointerEvents=0;fillColor=none;points=[[0,0.5],[1,0.5]];portConstraint=eastwest;top=0;left=0;right=0;bottom=1;" parent="HupzdPpE1W8kRD50MGGw-86" vertex="1">
          <mxGeometry y="30" width="260" height="30" as="geometry" />
        </mxCell>
        <mxCell id="HupzdPpE1W8kRD50MGGw-88" value="PK" style="shape=partialRectangle;overflow=hidden;connectable=0;fillColor=none;top=0;left=0;bottom=0;right=0;fontStyle=1;" parent="HupzdPpE1W8kRD50MGGw-87" vertex="1">
          <mxGeometry width="30" height="30" as="geometry">
            <mxRectangle width="30" height="30" as="alternateBounds" />
          </mxGeometry>
        </mxCell>
        <mxCell id="HupzdPpE1W8kRD50MGGw-89" value="id int NOT NULL AUTO INC" style="shape=partialRectangle;overflow=hidden;connectable=0;fillColor=none;top=0;left=0;bottom=0;right=0;align=left;spacingLeft=6;fontStyle=5;" parent="HupzdPpE1W8kRD50MGGw-87" vertex="1">
          <mxGeometry x="30" width="230" height="30" as="geometry">
            <mxRectangle width="230" height="30" as="alternateBounds" />
          </mxGeometry>
        </mxCell>
        <mxCell id="HupzdPpE1W8kRD50MGGw-90" value="" style="shape=partialRectangle;collapsible=0;dropTarget=0;pointerEvents=0;fillColor=none;points=[[0,0.5],[1,0.5]];portConstraint=eastwest;top=0;left=0;right=0;bottom=0;" parent="HupzdPpE1W8kRD50MGGw-86" vertex="1">
          <mxGeometry y="60" width="260" height="30" as="geometry" />
        </mxCell>
        <mxCell id="HupzdPpE1W8kRD50MGGw-91" value="FK1" style="shape=partialRectangle;overflow=hidden;connectable=0;fillColor=none;top=0;left=0;bottom=0;right=0;" parent="HupzdPpE1W8kRD50MGGw-90" vertex="1">
          <mxGeometry width="30" height="30" as="geometry">
            <mxRectangle width="30" height="30" as="alternateBounds" />
          </mxGeometry>
        </mxCell>
        <mxCell id="HupzdPpE1W8kRD50MGGw-92" value="item_id int NOT NULL" style="shape=partialRectangle;overflow=hidden;connectable=0;fillColor=none;top=0;left=0;bottom=0;right=0;align=left;spacingLeft=6;" parent="HupzdPpE1W8kRD50MGGw-90" vertex="1">
          <mxGeometry x="30" width="230" height="30" as="geometry">
            <mxRectangle width="230" height="30" as="alternateBounds" />
          </mxGeometry>
        </mxCell>
        <mxCell id="HupzdPpE1W8kRD50MGGw-93" value="" style="shape=partialRectangle;collapsible=0;dropTarget=0;pointerEvents=0;fillColor=none;points=[[0,0.5],[1,0.5]];portConstraint=eastwest;top=0;left=0;right=0;bottom=0;" parent="HupzdPpE1W8kRD50MGGw-86" vertex="1">
          <mxGeometry y="90" width="260" height="30" as="geometry" />
        </mxCell>
        <mxCell id="HupzdPpE1W8kRD50MGGw-94" value="FK2" style="shape=partialRectangle;overflow=hidden;connectable=0;fillColor=none;top=0;left=0;bottom=0;right=0;" parent="HupzdPpE1W8kRD50MGGw-93" vertex="1">
          <mxGeometry width="30" height="30" as="geometry">
            <mxRectangle width="30" height="30" as="alternateBounds" />
          </mxGeometry>
        </mxCell>
        <mxCell id="HupzdPpE1W8kRD50MGGw-95" value="user_id int NOT NULL" style="shape=partialRectangle;overflow=hidden;connectable=0;fillColor=none;top=0;left=0;bottom=0;right=0;align=left;spacingLeft=6;" parent="HupzdPpE1W8kRD50MGGw-93" vertex="1">
          <mxGeometry x="30" width="230" height="30" as="geometry">
            <mxRectangle width="230" height="30" as="alternateBounds" />
          </mxGeometry>
        </mxCell>
        <mxCell id="HupzdPpE1W8kRD50MGGw-114" value="" style="shape=partialRectangle;collapsible=0;dropTarget=0;pointerEvents=0;fillColor=none;points=[[0,0.5],[1,0.5]];portConstraint=eastwest;top=0;left=0;right=0;bottom=0;" parent="HupzdPpE1W8kRD50MGGw-86" vertex="1">
          <mxGeometry y="120" width="260" height="30" as="geometry" />
        </mxCell>
        <mxCell id="HupzdPpE1W8kRD50MGGw-115" value="FK3" style="shape=partialRectangle;overflow=hidden;connectable=0;fillColor=none;top=0;left=0;bottom=0;right=0;" parent="HupzdPpE1W8kRD50MGGw-114" vertex="1">
          <mxGeometry width="30" height="30" as="geometry">
            <mxRectangle width="30" height="30" as="alternateBounds" />
          </mxGeometry>
        </mxCell>
        <mxCell id="HupzdPpE1W8kRD50MGGw-116" value="status_id int NOT NULL " style="shape=partialRectangle;overflow=hidden;connectable=0;fillColor=none;top=0;left=0;bottom=0;right=0;align=left;spacingLeft=6;" parent="HupzdPpE1W8kRD50MGGw-114" vertex="1">
          <mxGeometry x="30" width="230" height="30" as="geometry">
            <mxRectangle width="230" height="30" as="alternateBounds" />
          </mxGeometry>
        </mxCell>
        <mxCell id="HupzdPpE1W8kRD50MGGw-96" value="" style="shape=partialRectangle;collapsible=0;dropTarget=0;pointerEvents=0;fillColor=none;points=[[0,0.5],[1,0.5]];portConstraint=eastwest;top=0;left=0;right=0;bottom=0;" parent="HupzdPpE1W8kRD50MGGw-86" vertex="1">
          <mxGeometry y="150" width="260" height="30" as="geometry" />
        </mxCell>
        <mxCell id="HupzdPpE1W8kRD50MGGw-97" value="" style="shape=partialRectangle;overflow=hidden;connectable=0;fillColor=none;top=0;left=0;bottom=0;right=0;" parent="HupzdPpE1W8kRD50MGGw-96" vertex="1">
          <mxGeometry width="30" height="30" as="geometry">
            <mxRectangle width="30" height="30" as="alternateBounds" />
          </mxGeometry>
        </mxCell>
        <mxCell id="HupzdPpE1W8kRD50MGGw-98" value="transaction_code char(30) NOT NULL" style="shape=partialRectangle;overflow=hidden;connectable=0;fillColor=none;top=0;left=0;bottom=0;right=0;align=left;spacingLeft=6;" parent="HupzdPpE1W8kRD50MGGw-96" vertex="1">
          <mxGeometry x="30" width="230" height="30" as="geometry">
            <mxRectangle width="230" height="30" as="alternateBounds" />
          </mxGeometry>
        </mxCell>
        <mxCell id="HupzdPpE1W8kRD50MGGw-99" value="" style="shape=partialRectangle;collapsible=0;dropTarget=0;pointerEvents=0;fillColor=none;points=[[0,0.5],[1,0.5]];portConstraint=eastwest;top=0;left=0;right=0;bottom=0;" parent="HupzdPpE1W8kRD50MGGw-86" vertex="1">
          <mxGeometry y="180" width="260" height="30" as="geometry" />
        </mxCell>
        <mxCell id="HupzdPpE1W8kRD50MGGw-100" value="" style="shape=partialRectangle;overflow=hidden;connectable=0;fillColor=none;top=0;left=0;bottom=0;right=0;" parent="HupzdPpE1W8kRD50MGGw-99" vertex="1">
          <mxGeometry width="30" height="30" as="geometry">
            <mxRectangle width="30" height="30" as="alternateBounds" />
          </mxGeometry>
        </mxCell>
        <mxCell id="HupzdPpE1W8kRD50MGGw-101" value="total_price numeric(10,2) NOT NULL" style="shape=partialRectangle;overflow=hidden;connectable=0;fillColor=none;top=0;left=0;bottom=0;right=0;align=left;spacingLeft=6;" parent="HupzdPpE1W8kRD50MGGw-99" vertex="1">
          <mxGeometry x="30" width="230" height="30" as="geometry">
            <mxRectangle width="230" height="30" as="alternateBounds" />
          </mxGeometry>
        </mxCell>
        <mxCell id="HupzdPpE1W8kRD50MGGw-102" value="" style="shape=partialRectangle;collapsible=0;dropTarget=0;pointerEvents=0;fillColor=none;points=[[0,0.5],[1,0.5]];portConstraint=eastwest;top=0;left=0;right=0;bottom=0;" parent="HupzdPpE1W8kRD50MGGw-86" vertex="1">
          <mxGeometry y="210" width="260" height="30" as="geometry" />
        </mxCell>
        <mxCell id="HupzdPpE1W8kRD50MGGw-103" value="" style="shape=partialRectangle;overflow=hidden;connectable=0;fillColor=none;top=0;left=0;bottom=0;right=0;" parent="HupzdPpE1W8kRD50MGGw-102" vertex="1">
          <mxGeometry width="30" height="30" as="geometry">
            <mxRectangle width="30" height="30" as="alternateBounds" />
          </mxGeometry>
        </mxCell>
        <mxCell id="HupzdPpE1W8kRD50MGGw-104" value="quantity numeric(5) NOT NULL" style="shape=partialRectangle;overflow=hidden;connectable=0;fillColor=none;top=0;left=0;bottom=0;right=0;align=left;spacingLeft=6;" parent="HupzdPpE1W8kRD50MGGw-102" vertex="1">
          <mxGeometry x="30" width="230" height="30" as="geometry">
            <mxRectangle width="230" height="30" as="alternateBounds" />
          </mxGeometry>
        </mxCell>
        <mxCell id="HupzdPpE1W8kRD50MGGw-108" value="" style="shape=partialRectangle;collapsible=0;dropTarget=0;pointerEvents=0;fillColor=none;points=[[0,0.5],[1,0.5]];portConstraint=eastwest;top=0;left=0;right=0;bottom=0;" parent="HupzdPpE1W8kRD50MGGw-86" vertex="1">
          <mxGeometry y="240" width="260" height="30" as="geometry" />
        </mxCell>
        <mxCell id="HupzdPpE1W8kRD50MGGw-109" value="" style="shape=partialRectangle;overflow=hidden;connectable=0;fillColor=none;top=0;left=0;bottom=0;right=0;" parent="HupzdPpE1W8kRD50MGGw-108" vertex="1">
          <mxGeometry width="30" height="30" as="geometry">
            <mxRectangle width="30" height="30" as="alternateBounds" />
          </mxGeometry>
        </mxCell>
        <mxCell id="HupzdPpE1W8kRD50MGGw-110" value="created_at timestamp DEFAULT CURR" style="shape=partialRectangle;overflow=hidden;connectable=0;fillColor=none;top=0;left=0;bottom=0;right=0;align=left;spacingLeft=6;" parent="HupzdPpE1W8kRD50MGGw-108" vertex="1">
          <mxGeometry x="30" width="230" height="30" as="geometry">
            <mxRectangle width="230" height="30" as="alternateBounds" />
          </mxGeometry>
        </mxCell>
        <mxCell id="HupzdPpE1W8kRD50MGGw-111" value="" style="shape=partialRectangle;collapsible=0;dropTarget=0;pointerEvents=0;fillColor=none;points=[[0,0.5],[1,0.5]];portConstraint=eastwest;top=0;left=0;right=0;bottom=0;" parent="HupzdPpE1W8kRD50MGGw-86" vertex="1">
          <mxGeometry y="270" width="260" height="30" as="geometry" />
        </mxCell>
        <mxCell id="HupzdPpE1W8kRD50MGGw-112" value="" style="shape=partialRectangle;overflow=hidden;connectable=0;fillColor=none;top=0;left=0;bottom=0;right=0;" parent="HupzdPpE1W8kRD50MGGw-111" vertex="1">
          <mxGeometry width="30" height="30" as="geometry">
            <mxRectangle width="30" height="30" as="alternateBounds" />
          </mxGeometry>
        </mxCell>
        <mxCell id="HupzdPpE1W8kRD50MGGw-113" value="updated_at timestamp NULL" style="shape=partialRectangle;overflow=hidden;connectable=0;fillColor=none;top=0;left=0;bottom=0;right=0;align=left;spacingLeft=6;" parent="HupzdPpE1W8kRD50MGGw-111" vertex="1">
          <mxGeometry x="30" width="230" height="30" as="geometry">
            <mxRectangle width="230" height="30" as="alternateBounds" />
          </mxGeometry>
        </mxCell>
        <mxCell id="HupzdPpE1W8kRD50MGGw-117" style="edgeStyle=orthogonalEdgeStyle;rounded=0;orthogonalLoop=1;jettySize=auto;html=1;entryX=1;entryY=0.5;entryDx=0;entryDy=0;startArrow=ERone;startFill=0;endArrow=ERzeroToMany;endFill=0;" parent="1" source="HupzdPpE1W8kRD50MGGw-8" target="HupzdPpE1W8kRD50MGGw-99" edge="1">
          <mxGeometry relative="1" as="geometry" />
        </mxCell>
        <mxCell id="HupzdPpE1W8kRD50MGGw-118" style="edgeStyle=orthogonalEdgeStyle;rounded=0;orthogonalLoop=1;jettySize=auto;html=1;entryX=0;entryY=0.5;entryDx=0;entryDy=0;startArrow=ERone;startFill=0;endArrow=ERzeroToMany;endFill=0;" parent="1" source="HupzdPpE1W8kRD50MGGw-65" target="HupzdPpE1W8kRD50MGGw-96" edge="1">
          <mxGeometry relative="1" as="geometry" />
        </mxCell>
        <mxCell id="HupzdPpE1W8kRD50MGGw-119" value="status" style="shape=table;startSize=30;container=1;collapsible=1;childLayout=tableLayout;fixedRows=1;rowLines=0;fontStyle=1;align=center;resizeLast=1;" parent="1" vertex="1">
          <mxGeometry x="-510" y="-170" width="260" height="150" as="geometry" />
        </mxCell>
        <mxCell id="HupzdPpE1W8kRD50MGGw-120" value="" style="shape=partialRectangle;collapsible=0;dropTarget=0;pointerEvents=0;fillColor=none;points=[[0,0.5],[1,0.5]];portConstraint=eastwest;top=0;left=0;right=0;bottom=1;" parent="HupzdPpE1W8kRD50MGGw-119" vertex="1">
          <mxGeometry y="30" width="260" height="30" as="geometry" />
        </mxCell>
        <mxCell id="HupzdPpE1W8kRD50MGGw-121" value="PK" style="shape=partialRectangle;overflow=hidden;connectable=0;fillColor=none;top=0;left=0;bottom=0;right=0;fontStyle=1;" parent="HupzdPpE1W8kRD50MGGw-120" vertex="1">
          <mxGeometry width="30" height="30" as="geometry">
            <mxRectangle width="30" height="30" as="alternateBounds" />
          </mxGeometry>
        </mxCell>
        <mxCell id="HupzdPpE1W8kRD50MGGw-122" value="id int NOT NULL AUTO INC" style="shape=partialRectangle;overflow=hidden;connectable=0;fillColor=none;top=0;left=0;bottom=0;right=0;align=left;spacingLeft=6;fontStyle=5;" parent="HupzdPpE1W8kRD50MGGw-120" vertex="1">
          <mxGeometry x="30" width="230" height="30" as="geometry">
            <mxRectangle width="230" height="30" as="alternateBounds" />
          </mxGeometry>
        </mxCell>
        <mxCell id="HupzdPpE1W8kRD50MGGw-123" value="" style="shape=partialRectangle;collapsible=0;dropTarget=0;pointerEvents=0;fillColor=none;points=[[0,0.5],[1,0.5]];portConstraint=eastwest;top=0;left=0;right=0;bottom=0;" parent="HupzdPpE1W8kRD50MGGw-119" vertex="1">
          <mxGeometry y="60" width="260" height="30" as="geometry" />
        </mxCell>
        <mxCell id="HupzdPpE1W8kRD50MGGw-124" value="" style="shape=partialRectangle;overflow=hidden;connectable=0;fillColor=none;top=0;left=0;bottom=0;right=0;" parent="HupzdPpE1W8kRD50MGGw-123" vertex="1">
          <mxGeometry width="30" height="30" as="geometry">
            <mxRectangle width="30" height="30" as="alternateBounds" />
          </mxGeometry>
        </mxCell>
        <mxCell id="HupzdPpE1W8kRD50MGGw-125" value="status char(30) NOT NULL" style="shape=partialRectangle;overflow=hidden;connectable=0;fillColor=none;top=0;left=0;bottom=0;right=0;align=left;spacingLeft=6;" parent="HupzdPpE1W8kRD50MGGw-123" vertex="1">
          <mxGeometry x="30" width="230" height="30" as="geometry">
            <mxRectangle width="230" height="30" as="alternateBounds" />
          </mxGeometry>
        </mxCell>
        <mxCell id="HupzdPpE1W8kRD50MGGw-126" value="" style="shape=partialRectangle;collapsible=0;dropTarget=0;pointerEvents=0;fillColor=none;points=[[0,0.5],[1,0.5]];portConstraint=eastwest;top=0;left=0;right=0;bottom=0;" parent="HupzdPpE1W8kRD50MGGw-119" vertex="1">
          <mxGeometry y="90" width="260" height="30" as="geometry" />
        </mxCell>
        <mxCell id="HupzdPpE1W8kRD50MGGw-127" value="" style="shape=partialRectangle;overflow=hidden;connectable=0;fillColor=none;top=0;left=0;bottom=0;right=0;" parent="HupzdPpE1W8kRD50MGGw-126" vertex="1">
          <mxGeometry width="30" height="30" as="geometry">
            <mxRectangle width="30" height="30" as="alternateBounds" />
          </mxGeometry>
        </mxCell>
        <mxCell id="HupzdPpE1W8kRD50MGGw-128" value="created_at timestamp DEFAULT CURR" style="shape=partialRectangle;overflow=hidden;connectable=0;fillColor=none;top=0;left=0;bottom=0;right=0;align=left;spacingLeft=6;" parent="HupzdPpE1W8kRD50MGGw-126" vertex="1">
          <mxGeometry x="30" width="230" height="30" as="geometry">
            <mxRectangle width="230" height="30" as="alternateBounds" />
          </mxGeometry>
        </mxCell>
        <mxCell id="HupzdPpE1W8kRD50MGGw-129" value="" style="shape=partialRectangle;collapsible=0;dropTarget=0;pointerEvents=0;fillColor=none;points=[[0,0.5],[1,0.5]];portConstraint=eastwest;top=0;left=0;right=0;bottom=0;" parent="HupzdPpE1W8kRD50MGGw-119" vertex="1">
          <mxGeometry y="120" width="260" height="30" as="geometry" />
        </mxCell>
        <mxCell id="HupzdPpE1W8kRD50MGGw-130" value="" style="shape=partialRectangle;overflow=hidden;connectable=0;fillColor=none;top=0;left=0;bottom=0;right=0;" parent="HupzdPpE1W8kRD50MGGw-129" vertex="1">
          <mxGeometry width="30" height="30" as="geometry">
            <mxRectangle width="30" height="30" as="alternateBounds" />
          </mxGeometry>
        </mxCell>
        <mxCell id="HupzdPpE1W8kRD50MGGw-131" value="updated_at timestamp NULL" style="shape=partialRectangle;overflow=hidden;connectable=0;fillColor=none;top=0;left=0;bottom=0;right=0;align=left;spacingLeft=6;" parent="HupzdPpE1W8kRD50MGGw-129" vertex="1">
          <mxGeometry x="30" width="230" height="30" as="geometry">
            <mxRectangle width="230" height="30" as="alternateBounds" />
          </mxGeometry>
        </mxCell>
        <mxCell id="HupzdPpE1W8kRD50MGGw-132" style="edgeStyle=orthogonalEdgeStyle;rounded=0;orthogonalLoop=1;jettySize=auto;html=1;startArrow=ERone;startFill=0;endArrow=ERzeroToMany;endFill=0;" parent="1" source="HupzdPpE1W8kRD50MGGw-123" target="HupzdPpE1W8kRD50MGGw-86" edge="1">
          <mxGeometry relative="1" as="geometry" />
        </mxCell>
        <mxCell id="HupzdPpE1W8kRD50MGGw-133" value="cart" style="shape=table;startSize=30;container=1;collapsible=1;childLayout=tableLayout;fixedRows=1;rowLines=0;fontStyle=1;align=center;resizeLast=1;" parent="1" vertex="1">
          <mxGeometry x="-150" y="420" width="260" height="300" as="geometry" />
        </mxCell>
        <mxCell id="HupzdPpE1W8kRD50MGGw-134" value="" style="shape=partialRectangle;collapsible=0;dropTarget=0;pointerEvents=0;fillColor=none;points=[[0,0.5],[1,0.5]];portConstraint=eastwest;top=0;left=0;right=0;bottom=1;" parent="HupzdPpE1W8kRD50MGGw-133" vertex="1">
          <mxGeometry y="30" width="260" height="30" as="geometry" />
        </mxCell>
        <mxCell id="HupzdPpE1W8kRD50MGGw-135" value="PK" style="shape=partialRectangle;overflow=hidden;connectable=0;fillColor=none;top=0;left=0;bottom=0;right=0;fontStyle=1;" parent="HupzdPpE1W8kRD50MGGw-134" vertex="1">
          <mxGeometry width="30" height="30" as="geometry">
            <mxRectangle width="30" height="30" as="alternateBounds" />
          </mxGeometry>
        </mxCell>
        <mxCell id="HupzdPpE1W8kRD50MGGw-136" value="id int NOT NULL AUTO INC" style="shape=partialRectangle;overflow=hidden;connectable=0;fillColor=none;top=0;left=0;bottom=0;right=0;align=left;spacingLeft=6;fontStyle=5;" parent="HupzdPpE1W8kRD50MGGw-134" vertex="1">
          <mxGeometry x="30" width="230" height="30" as="geometry">
            <mxRectangle width="230" height="30" as="alternateBounds" />
          </mxGeometry>
        </mxCell>
        <mxCell id="HupzdPpE1W8kRD50MGGw-137" value="" style="shape=partialRectangle;collapsible=0;dropTarget=0;pointerEvents=0;fillColor=none;points=[[0,0.5],[1,0.5]];portConstraint=eastwest;top=0;left=0;right=0;bottom=0;" parent="HupzdPpE1W8kRD50MGGw-133" vertex="1">
          <mxGeometry y="60" width="260" height="30" as="geometry" />
        </mxCell>
        <mxCell id="HupzdPpE1W8kRD50MGGw-138" value="FK1" style="shape=partialRectangle;overflow=hidden;connectable=0;fillColor=none;top=0;left=0;bottom=0;right=0;" parent="HupzdPpE1W8kRD50MGGw-137" vertex="1">
          <mxGeometry width="30" height="30" as="geometry">
            <mxRectangle width="30" height="30" as="alternateBounds" />
          </mxGeometry>
        </mxCell>
        <mxCell id="HupzdPpE1W8kRD50MGGw-139" value="item_id int NOT NULL" style="shape=partialRectangle;overflow=hidden;connectable=0;fillColor=none;top=0;left=0;bottom=0;right=0;align=left;spacingLeft=6;" parent="HupzdPpE1W8kRD50MGGw-137" vertex="1">
          <mxGeometry x="30" width="230" height="30" as="geometry">
            <mxRectangle width="230" height="30" as="alternateBounds" />
          </mxGeometry>
        </mxCell>
        <mxCell id="HupzdPpE1W8kRD50MGGw-140" value="" style="shape=partialRectangle;collapsible=0;dropTarget=0;pointerEvents=0;fillColor=none;points=[[0,0.5],[1,0.5]];portConstraint=eastwest;top=0;left=0;right=0;bottom=0;" parent="HupzdPpE1W8kRD50MGGw-133" vertex="1">
          <mxGeometry y="90" width="260" height="30" as="geometry" />
        </mxCell>
        <mxCell id="HupzdPpE1W8kRD50MGGw-141" value="FK1" style="shape=partialRectangle;overflow=hidden;connectable=0;fillColor=none;top=0;left=0;bottom=0;right=0;" parent="HupzdPpE1W8kRD50MGGw-140" vertex="1">
          <mxGeometry width="30" height="30" as="geometry">
            <mxRectangle width="30" height="30" as="alternateBounds" />
          </mxGeometry>
        </mxCell>
        <mxCell id="HupzdPpE1W8kRD50MGGw-142" value="user_id int NOT NULL" style="shape=partialRectangle;overflow=hidden;connectable=0;fillColor=none;top=0;left=0;bottom=0;right=0;align=left;spacingLeft=6;" parent="HupzdPpE1W8kRD50MGGw-140" vertex="1">
          <mxGeometry x="30" width="230" height="30" as="geometry">
            <mxRectangle width="230" height="30" as="alternateBounds" />
          </mxGeometry>
        </mxCell>
        <mxCell id="HupzdPpE1W8kRD50MGGw-143" value="" style="shape=partialRectangle;collapsible=0;dropTarget=0;pointerEvents=0;fillColor=none;points=[[0,0.5],[1,0.5]];portConstraint=eastwest;top=0;left=0;right=0;bottom=0;" parent="HupzdPpE1W8kRD50MGGw-133" vertex="1">
          <mxGeometry y="120" width="260" height="30" as="geometry" />
        </mxCell>
        <mxCell id="HupzdPpE1W8kRD50MGGw-144" value="" style="shape=partialRectangle;overflow=hidden;connectable=0;fillColor=none;top=0;left=0;bottom=0;right=0;" parent="HupzdPpE1W8kRD50MGGw-143" vertex="1">
          <mxGeometry width="30" height="30" as="geometry">
            <mxRectangle width="30" height="30" as="alternateBounds" />
          </mxGeometry>
        </mxCell>
        <mxCell id="HupzdPpE1W8kRD50MGGw-145" value="item_name char(200) NOT NULL" style="shape=partialRectangle;overflow=hidden;connectable=0;fillColor=none;top=0;left=0;bottom=0;right=0;align=left;spacingLeft=6;" parent="HupzdPpE1W8kRD50MGGw-143" vertex="1">
          <mxGeometry x="30" width="230" height="30" as="geometry">
            <mxRectangle width="230" height="30" as="alternateBounds" />
          </mxGeometry>
        </mxCell>
        <mxCell id="HupzdPpE1W8kRD50MGGw-146" value="" style="shape=partialRectangle;collapsible=0;dropTarget=0;pointerEvents=0;fillColor=none;points=[[0,0.5],[1,0.5]];portConstraint=eastwest;top=0;left=0;right=0;bottom=0;" parent="HupzdPpE1W8kRD50MGGw-133" vertex="1">
          <mxGeometry y="150" width="260" height="30" as="geometry" />
        </mxCell>
        <mxCell id="HupzdPpE1W8kRD50MGGw-147" value="" style="shape=partialRectangle;overflow=hidden;connectable=0;fillColor=none;top=0;left=0;bottom=0;right=0;" parent="HupzdPpE1W8kRD50MGGw-146" vertex="1">
          <mxGeometry width="30" height="30" as="geometry">
            <mxRectangle width="30" height="30" as="alternateBounds" />
          </mxGeometry>
        </mxCell>
        <mxCell id="HupzdPpE1W8kRD50MGGw-148" value="picture byte NULL" style="shape=partialRectangle;overflow=hidden;connectable=0;fillColor=none;top=0;left=0;bottom=0;right=0;align=left;spacingLeft=6;" parent="HupzdPpE1W8kRD50MGGw-146" vertex="1">
          <mxGeometry x="30" width="230" height="30" as="geometry">
            <mxRectangle width="230" height="30" as="alternateBounds" />
          </mxGeometry>
        </mxCell>
        <mxCell id="HupzdPpE1W8kRD50MGGw-149" value="" style="shape=partialRectangle;collapsible=0;dropTarget=0;pointerEvents=0;fillColor=none;points=[[0,0.5],[1,0.5]];portConstraint=eastwest;top=0;left=0;right=0;bottom=0;" parent="HupzdPpE1W8kRD50MGGw-133" vertex="1">
          <mxGeometry y="180" width="260" height="30" as="geometry" />
        </mxCell>
        <mxCell id="HupzdPpE1W8kRD50MGGw-150" value="" style="shape=partialRectangle;overflow=hidden;connectable=0;fillColor=none;top=0;left=0;bottom=0;right=0;" parent="HupzdPpE1W8kRD50MGGw-149" vertex="1">
          <mxGeometry width="30" height="30" as="geometry">
            <mxRectangle width="30" height="30" as="alternateBounds" />
          </mxGeometry>
        </mxCell>
        <mxCell id="HupzdPpE1W8kRD50MGGw-151" value="description char(200) NULL" style="shape=partialRectangle;overflow=hidden;connectable=0;fillColor=none;top=0;left=0;bottom=0;right=0;align=left;spacingLeft=6;" parent="HupzdPpE1W8kRD50MGGw-149" vertex="1">
          <mxGeometry x="30" width="230" height="30" as="geometry">
            <mxRectangle width="230" height="30" as="alternateBounds" />
          </mxGeometry>
        </mxCell>
        <mxCell id="HupzdPpE1W8kRD50MGGw-152" value="" style="shape=partialRectangle;collapsible=0;dropTarget=0;pointerEvents=0;fillColor=none;points=[[0,0.5],[1,0.5]];portConstraint=eastwest;top=0;left=0;right=0;bottom=0;" parent="HupzdPpE1W8kRD50MGGw-133" vertex="1">
          <mxGeometry y="210" width="260" height="30" as="geometry" />
        </mxCell>
        <mxCell id="HupzdPpE1W8kRD50MGGw-153" value="" style="shape=partialRectangle;overflow=hidden;connectable=0;fillColor=none;top=0;left=0;bottom=0;right=0;" parent="HupzdPpE1W8kRD50MGGw-152" vertex="1">
          <mxGeometry width="30" height="30" as="geometry">
            <mxRectangle width="30" height="30" as="alternateBounds" />
          </mxGeometry>
        </mxCell>
        <mxCell id="HupzdPpE1W8kRD50MGGw-154" value="quantity numeric(5) NOT NULL" style="shape=partialRectangle;overflow=hidden;connectable=0;fillColor=none;top=0;left=0;bottom=0;right=0;align=left;spacingLeft=6;" parent="HupzdPpE1W8kRD50MGGw-152" vertex="1">
          <mxGeometry x="30" width="230" height="30" as="geometry">
            <mxRectangle width="230" height="30" as="alternateBounds" />
          </mxGeometry>
        </mxCell>
        <mxCell id="HupzdPpE1W8kRD50MGGw-155" value="" style="shape=partialRectangle;collapsible=0;dropTarget=0;pointerEvents=0;fillColor=none;points=[[0,0.5],[1,0.5]];portConstraint=eastwest;top=0;left=0;right=0;bottom=0;" parent="HupzdPpE1W8kRD50MGGw-133" vertex="1">
          <mxGeometry y="240" width="260" height="30" as="geometry" />
        </mxCell>
        <mxCell id="HupzdPpE1W8kRD50MGGw-156" value="" style="shape=partialRectangle;overflow=hidden;connectable=0;fillColor=none;top=0;left=0;bottom=0;right=0;" parent="HupzdPpE1W8kRD50MGGw-155" vertex="1">
          <mxGeometry width="30" height="30" as="geometry">
            <mxRectangle width="30" height="30" as="alternateBounds" />
          </mxGeometry>
        </mxCell>
        <mxCell id="HupzdPpE1W8kRD50MGGw-157" value="created_at timestamp DEFAULT CURR" style="shape=partialRectangle;overflow=hidden;connectable=0;fillColor=none;top=0;left=0;bottom=0;right=0;align=left;spacingLeft=6;" parent="HupzdPpE1W8kRD50MGGw-155" vertex="1">
          <mxGeometry x="30" width="230" height="30" as="geometry">
            <mxRectangle width="230" height="30" as="alternateBounds" />
          </mxGeometry>
        </mxCell>
        <mxCell id="HupzdPpE1W8kRD50MGGw-158" value="" style="shape=partialRectangle;collapsible=0;dropTarget=0;pointerEvents=0;fillColor=none;points=[[0,0.5],[1,0.5]];portConstraint=eastwest;top=0;left=0;right=0;bottom=0;" parent="HupzdPpE1W8kRD50MGGw-133" vertex="1">
          <mxGeometry y="270" width="260" height="30" as="geometry" />
        </mxCell>
        <mxCell id="HupzdPpE1W8kRD50MGGw-159" value="" style="shape=partialRectangle;overflow=hidden;connectable=0;fillColor=none;top=0;left=0;bottom=0;right=0;" parent="HupzdPpE1W8kRD50MGGw-158" vertex="1">
          <mxGeometry width="30" height="30" as="geometry">
            <mxRectangle width="30" height="30" as="alternateBounds" />
          </mxGeometry>
        </mxCell>
        <mxCell id="HupzdPpE1W8kRD50MGGw-160" value="updated_at timestamp NULL" style="shape=partialRectangle;overflow=hidden;connectable=0;fillColor=none;top=0;left=0;bottom=0;right=0;align=left;spacingLeft=6;" parent="HupzdPpE1W8kRD50MGGw-158" vertex="1">
          <mxGeometry x="30" width="230" height="30" as="geometry">
            <mxRectangle width="230" height="30" as="alternateBounds" />
          </mxGeometry>
        </mxCell>
        <mxCell id="HupzdPpE1W8kRD50MGGw-161" style="edgeStyle=orthogonalEdgeStyle;rounded=0;orthogonalLoop=1;jettySize=auto;html=1;entryX=-0.005;entryY=0.231;entryDx=0;entryDy=0;entryPerimeter=0;startArrow=ERone;startFill=0;endArrow=ERzeroToMany;endFill=0;" parent="1" source="HupzdPpE1W8kRD50MGGw-56" target="HupzdPpE1W8kRD50MGGw-137" edge="1">
          <mxGeometry relative="1" as="geometry" />
        </mxCell>
        <mxCell id="HupzdPpE1W8kRD50MGGw-162" style="edgeStyle=orthogonalEdgeStyle;rounded=0;orthogonalLoop=1;jettySize=auto;html=1;entryX=1.001;entryY=0.235;entryDx=0;entryDy=0;entryPerimeter=0;startArrow=ERone;startFill=0;endArrow=ERzeroToMany;endFill=0;" parent="1" source="HupzdPpE1W8kRD50MGGw-20" target="HupzdPpE1W8kRD50MGGw-140" edge="1">
          <mxGeometry relative="1" as="geometry" />
        </mxCell>
        <mxCell id="sScY5Y3A5HVHYoLJD_x2-42" style="edgeStyle=orthogonalEdgeStyle;rounded=0;orthogonalLoop=1;jettySize=auto;html=1;endArrow=ERzeroToMany;endFill=0;startArrow=ERone;startFill=0;" edge="1" parent="1" source="HupzdPpE1W8kRD50MGGw-163" target="sScY5Y3A5HVHYoLJD_x2-11">
          <mxGeometry relative="1" as="geometry" />
        </mxCell>
        <mxCell id="HupzdPpE1W8kRD50MGGw-163" value="color" style="shape=table;startSize=30;container=1;collapsible=1;childLayout=tableLayout;fixedRows=1;rowLines=0;fontStyle=1;align=center;resizeLast=1;" parent="1" vertex="1">
          <mxGeometry x="-1190" y="120" width="230" height="120" as="geometry" />
        </mxCell>
        <mxCell id="HupzdPpE1W8kRD50MGGw-164" value="" style="shape=partialRectangle;collapsible=0;dropTarget=0;pointerEvents=0;fillColor=none;points=[[0,0.5],[1,0.5]];portConstraint=eastwest;top=0;left=0;right=0;bottom=1;" parent="HupzdPpE1W8kRD50MGGw-163" vertex="1">
          <mxGeometry y="30" width="230" height="30" as="geometry" />
        </mxCell>
        <mxCell id="HupzdPpE1W8kRD50MGGw-165" value="PK" style="shape=partialRectangle;overflow=hidden;connectable=0;fillColor=none;top=0;left=0;bottom=0;right=0;fontStyle=1;" parent="HupzdPpE1W8kRD50MGGw-164" vertex="1">
          <mxGeometry width="30" height="30" as="geometry">
            <mxRectangle width="30" height="30" as="alternateBounds" />
          </mxGeometry>
        </mxCell>
        <mxCell id="HupzdPpE1W8kRD50MGGw-166" value="id int NOT NULL AUTO INC" style="shape=partialRectangle;overflow=hidden;connectable=0;fillColor=none;top=0;left=0;bottom=0;right=0;align=left;spacingLeft=6;fontStyle=5;" parent="HupzdPpE1W8kRD50MGGw-164" vertex="1">
          <mxGeometry x="30" width="200" height="30" as="geometry">
            <mxRectangle width="200" height="30" as="alternateBounds" />
          </mxGeometry>
        </mxCell>
        <mxCell id="HupzdPpE1W8kRD50MGGw-167" value="" style="shape=partialRectangle;collapsible=0;dropTarget=0;pointerEvents=0;fillColor=none;points=[[0,0.5],[1,0.5]];portConstraint=eastwest;top=0;left=0;right=0;bottom=0;" parent="HupzdPpE1W8kRD50MGGw-163" vertex="1">
          <mxGeometry y="60" width="230" height="30" as="geometry" />
        </mxCell>
        <mxCell id="HupzdPpE1W8kRD50MGGw-168" value="" style="shape=partialRectangle;overflow=hidden;connectable=0;fillColor=none;top=0;left=0;bottom=0;right=0;" parent="HupzdPpE1W8kRD50MGGw-167" vertex="1">
          <mxGeometry width="30" height="30" as="geometry">
            <mxRectangle width="30" height="30" as="alternateBounds" />
          </mxGeometry>
        </mxCell>
        <mxCell id="HupzdPpE1W8kRD50MGGw-169" value="color char(50) NOT NULL" style="shape=partialRectangle;overflow=hidden;connectable=0;fillColor=none;top=0;left=0;bottom=0;right=0;align=left;spacingLeft=6;" parent="HupzdPpE1W8kRD50MGGw-167" vertex="1">
          <mxGeometry x="30" width="200" height="30" as="geometry">
            <mxRectangle width="200" height="30" as="alternateBounds" />
          </mxGeometry>
        </mxCell>
        <mxCell id="HupzdPpE1W8kRD50MGGw-170" value="" style="shape=partialRectangle;collapsible=0;dropTarget=0;pointerEvents=0;fillColor=none;points=[[0,0.5],[1,0.5]];portConstraint=eastwest;top=0;left=0;right=0;bottom=0;" parent="HupzdPpE1W8kRD50MGGw-163" vertex="1">
          <mxGeometry y="90" width="230" height="30" as="geometry" />
        </mxCell>
        <mxCell id="HupzdPpE1W8kRD50MGGw-171" value="" style="shape=partialRectangle;overflow=hidden;connectable=0;fillColor=none;top=0;left=0;bottom=0;right=0;" parent="HupzdPpE1W8kRD50MGGw-170" vertex="1">
          <mxGeometry width="30" height="30" as="geometry">
            <mxRectangle width="30" height="30" as="alternateBounds" />
          </mxGeometry>
        </mxCell>
        <mxCell id="HupzdPpE1W8kRD50MGGw-172" value="" style="shape=partialRectangle;overflow=hidden;connectable=0;fillColor=none;top=0;left=0;bottom=0;right=0;align=left;spacingLeft=6;" parent="HupzdPpE1W8kRD50MGGw-170" vertex="1">
          <mxGeometry x="30" width="200" height="30" as="geometry">
            <mxRectangle width="200" height="30" as="alternateBounds" />
          </mxGeometry>
        </mxCell>
        <mxCell id="sScY5Y3A5HVHYoLJD_x2-44" style="edgeStyle=orthogonalEdgeStyle;rounded=0;orthogonalLoop=1;jettySize=auto;html=1;" edge="1" parent="1" source="sScY5Y3A5HVHYoLJD_x2-1" target="sScY5Y3A5HVHYoLJD_x2-24">
          <mxGeometry relative="1" as="geometry" />
        </mxCell>
        <mxCell id="sScY5Y3A5HVHYoLJD_x2-1" value="size" style="shape=table;startSize=30;container=1;collapsible=1;childLayout=tableLayout;fixedRows=1;rowLines=0;fontStyle=1;align=center;resizeLast=1;" vertex="1" parent="1">
          <mxGeometry x="-910" y="570" width="230" height="120" as="geometry" />
        </mxCell>
        <mxCell id="sScY5Y3A5HVHYoLJD_x2-2" value="" style="shape=partialRectangle;collapsible=0;dropTarget=0;pointerEvents=0;fillColor=none;points=[[0,0.5],[1,0.5]];portConstraint=eastwest;top=0;left=0;right=0;bottom=1;" vertex="1" parent="sScY5Y3A5HVHYoLJD_x2-1">
          <mxGeometry y="30" width="230" height="30" as="geometry" />
        </mxCell>
        <mxCell id="sScY5Y3A5HVHYoLJD_x2-3" value="PK" style="shape=partialRectangle;overflow=hidden;connectable=0;fillColor=none;top=0;left=0;bottom=0;right=0;fontStyle=1;" vertex="1" parent="sScY5Y3A5HVHYoLJD_x2-2">
          <mxGeometry width="30" height="30" as="geometry">
            <mxRectangle width="30" height="30" as="alternateBounds" />
          </mxGeometry>
        </mxCell>
        <mxCell id="sScY5Y3A5HVHYoLJD_x2-4" value="id int NOT NULL AUTO INC" style="shape=partialRectangle;overflow=hidden;connectable=0;fillColor=none;top=0;left=0;bottom=0;right=0;align=left;spacingLeft=6;fontStyle=5;" vertex="1" parent="sScY5Y3A5HVHYoLJD_x2-2">
          <mxGeometry x="30" width="200" height="30" as="geometry">
            <mxRectangle width="200" height="30" as="alternateBounds" />
          </mxGeometry>
        </mxCell>
        <mxCell id="sScY5Y3A5HVHYoLJD_x2-5" value="" style="shape=partialRectangle;collapsible=0;dropTarget=0;pointerEvents=0;fillColor=none;points=[[0,0.5],[1,0.5]];portConstraint=eastwest;top=0;left=0;right=0;bottom=0;" vertex="1" parent="sScY5Y3A5HVHYoLJD_x2-1">
          <mxGeometry y="60" width="230" height="30" as="geometry" />
        </mxCell>
        <mxCell id="sScY5Y3A5HVHYoLJD_x2-6" value="" style="shape=partialRectangle;overflow=hidden;connectable=0;fillColor=none;top=0;left=0;bottom=0;right=0;" vertex="1" parent="sScY5Y3A5HVHYoLJD_x2-5">
          <mxGeometry width="30" height="30" as="geometry">
            <mxRectangle width="30" height="30" as="alternateBounds" />
          </mxGeometry>
        </mxCell>
        <mxCell id="sScY5Y3A5HVHYoLJD_x2-7" value="size char(10) NOT NULL" style="shape=partialRectangle;overflow=hidden;connectable=0;fillColor=none;top=0;left=0;bottom=0;right=0;align=left;spacingLeft=6;" vertex="1" parent="sScY5Y3A5HVHYoLJD_x2-5">
          <mxGeometry x="30" width="200" height="30" as="geometry">
            <mxRectangle width="200" height="30" as="alternateBounds" />
          </mxGeometry>
        </mxCell>
        <mxCell id="sScY5Y3A5HVHYoLJD_x2-8" value="" style="shape=partialRectangle;collapsible=0;dropTarget=0;pointerEvents=0;fillColor=none;points=[[0,0.5],[1,0.5]];portConstraint=eastwest;top=0;left=0;right=0;bottom=0;" vertex="1" parent="sScY5Y3A5HVHYoLJD_x2-1">
          <mxGeometry y="90" width="230" height="30" as="geometry" />
        </mxCell>
        <mxCell id="sScY5Y3A5HVHYoLJD_x2-9" value="" style="shape=partialRectangle;overflow=hidden;connectable=0;fillColor=none;top=0;left=0;bottom=0;right=0;" vertex="1" parent="sScY5Y3A5HVHYoLJD_x2-8">
          <mxGeometry width="30" height="30" as="geometry">
            <mxRectangle width="30" height="30" as="alternateBounds" />
          </mxGeometry>
        </mxCell>
        <mxCell id="sScY5Y3A5HVHYoLJD_x2-10" value="" style="shape=partialRectangle;overflow=hidden;connectable=0;fillColor=none;top=0;left=0;bottom=0;right=0;align=left;spacingLeft=6;" vertex="1" parent="sScY5Y3A5HVHYoLJD_x2-8">
          <mxGeometry x="30" width="200" height="30" as="geometry">
            <mxRectangle width="200" height="30" as="alternateBounds" />
          </mxGeometry>
        </mxCell>
        <mxCell id="sScY5Y3A5HVHYoLJD_x2-45" style="edgeStyle=orthogonalEdgeStyle;rounded=0;orthogonalLoop=1;jettySize=auto;html=1;startArrow=ERzeroToMany;startFill=0;endArrow=ERone;endFill=0;" edge="1" parent="1" source="sScY5Y3A5HVHYoLJD_x2-11" target="HupzdPpE1W8kRD50MGGw-65">
          <mxGeometry relative="1" as="geometry" />
        </mxCell>
        <mxCell id="sScY5Y3A5HVHYoLJD_x2-11" value="item_detail" style="shape=table;startSize=30;container=1;collapsible=1;childLayout=tableLayout;fixedRows=1;rowLines=0;fontStyle=1;align=center;resizeLast=1;" vertex="1" parent="1">
          <mxGeometry x="-850" y="125" width="260" height="180" as="geometry" />
        </mxCell>
        <mxCell id="sScY5Y3A5HVHYoLJD_x2-12" value="" style="shape=partialRectangle;collapsible=0;dropTarget=0;pointerEvents=0;fillColor=none;points=[[0,0.5],[1,0.5]];portConstraint=eastwest;top=0;left=0;right=0;bottom=1;" vertex="1" parent="sScY5Y3A5HVHYoLJD_x2-11">
          <mxGeometry y="30" width="260" height="30" as="geometry" />
        </mxCell>
        <mxCell id="sScY5Y3A5HVHYoLJD_x2-13" value="PK" style="shape=partialRectangle;overflow=hidden;connectable=0;fillColor=none;top=0;left=0;bottom=0;right=0;fontStyle=1;" vertex="1" parent="sScY5Y3A5HVHYoLJD_x2-12">
          <mxGeometry width="30" height="30" as="geometry">
            <mxRectangle width="30" height="30" as="alternateBounds" />
          </mxGeometry>
        </mxCell>
        <mxCell id="sScY5Y3A5HVHYoLJD_x2-14" value="id int NOT NULL AUTO INC" style="shape=partialRectangle;overflow=hidden;connectable=0;fillColor=none;top=0;left=0;bottom=0;right=0;align=left;spacingLeft=6;fontStyle=5;" vertex="1" parent="sScY5Y3A5HVHYoLJD_x2-12">
          <mxGeometry x="30" width="230" height="30" as="geometry">
            <mxRectangle width="230" height="30" as="alternateBounds" />
          </mxGeometry>
        </mxCell>
        <mxCell id="sScY5Y3A5HVHYoLJD_x2-15" value="" style="shape=partialRectangle;collapsible=0;dropTarget=0;pointerEvents=0;fillColor=none;points=[[0,0.5],[1,0.5]];portConstraint=eastwest;top=0;left=0;right=0;bottom=0;" vertex="1" parent="sScY5Y3A5HVHYoLJD_x2-11">
          <mxGeometry y="60" width="260" height="30" as="geometry" />
        </mxCell>
        <mxCell id="sScY5Y3A5HVHYoLJD_x2-16" value="FK" style="shape=partialRectangle;overflow=hidden;connectable=0;fillColor=none;top=0;left=0;bottom=0;right=0;" vertex="1" parent="sScY5Y3A5HVHYoLJD_x2-15">
          <mxGeometry width="30" height="30" as="geometry">
            <mxRectangle width="30" height="30" as="alternateBounds" />
          </mxGeometry>
        </mxCell>
        <mxCell id="sScY5Y3A5HVHYoLJD_x2-17" value="color_id int NOT NULL" style="shape=partialRectangle;overflow=hidden;connectable=0;fillColor=none;top=0;left=0;bottom=0;right=0;align=left;spacingLeft=6;" vertex="1" parent="sScY5Y3A5HVHYoLJD_x2-15">
          <mxGeometry x="30" width="230" height="30" as="geometry">
            <mxRectangle width="230" height="30" as="alternateBounds" />
          </mxGeometry>
        </mxCell>
        <mxCell id="sScY5Y3A5HVHYoLJD_x2-18" value="" style="shape=partialRectangle;collapsible=0;dropTarget=0;pointerEvents=0;fillColor=none;points=[[0,0.5],[1,0.5]];portConstraint=eastwest;top=0;left=0;right=0;bottom=0;" vertex="1" parent="sScY5Y3A5HVHYoLJD_x2-11">
          <mxGeometry y="90" width="260" height="30" as="geometry" />
        </mxCell>
        <mxCell id="sScY5Y3A5HVHYoLJD_x2-19" value="FK" style="shape=partialRectangle;overflow=hidden;connectable=0;fillColor=none;top=0;left=0;bottom=0;right=0;" vertex="1" parent="sScY5Y3A5HVHYoLJD_x2-18">
          <mxGeometry width="30" height="30" as="geometry">
            <mxRectangle width="30" height="30" as="alternateBounds" />
          </mxGeometry>
        </mxCell>
        <mxCell id="sScY5Y3A5HVHYoLJD_x2-20" value="size_id int NOT NULL" style="shape=partialRectangle;overflow=hidden;connectable=0;fillColor=none;top=0;left=0;bottom=0;right=0;align=left;spacingLeft=6;" vertex="1" parent="sScY5Y3A5HVHYoLJD_x2-18">
          <mxGeometry x="30" width="230" height="30" as="geometry">
            <mxRectangle width="230" height="30" as="alternateBounds" />
          </mxGeometry>
        </mxCell>
        <mxCell id="sScY5Y3A5HVHYoLJD_x2-21" value="" style="shape=partialRectangle;collapsible=0;dropTarget=0;pointerEvents=0;fillColor=none;points=[[0,0.5],[1,0.5]];portConstraint=eastwest;top=0;left=0;right=0;bottom=0;" vertex="1" parent="sScY5Y3A5HVHYoLJD_x2-11">
          <mxGeometry y="120" width="260" height="30" as="geometry" />
        </mxCell>
        <mxCell id="sScY5Y3A5HVHYoLJD_x2-22" value="FK" style="shape=partialRectangle;overflow=hidden;connectable=0;fillColor=none;top=0;left=0;bottom=0;right=0;" vertex="1" parent="sScY5Y3A5HVHYoLJD_x2-21">
          <mxGeometry width="30" height="30" as="geometry">
            <mxRectangle width="30" height="30" as="alternateBounds" />
          </mxGeometry>
        </mxCell>
        <mxCell id="sScY5Y3A5HVHYoLJD_x2-23" value="item_id int NOT NULL" style="shape=partialRectangle;overflow=hidden;connectable=0;fillColor=none;top=0;left=0;bottom=0;right=0;align=left;spacingLeft=6;" vertex="1" parent="sScY5Y3A5HVHYoLJD_x2-21">
          <mxGeometry x="30" width="230" height="30" as="geometry">
            <mxRectangle width="230" height="30" as="alternateBounds" />
          </mxGeometry>
        </mxCell>
        <mxCell id="sScY5Y3A5HVHYoLJD_x2-24" value="" style="shape=partialRectangle;collapsible=0;dropTarget=0;pointerEvents=0;fillColor=none;points=[[0,0.5],[1,0.5]];portConstraint=eastwest;top=0;left=0;right=0;bottom=0;" vertex="1" parent="sScY5Y3A5HVHYoLJD_x2-11">
          <mxGeometry y="150" width="260" height="30" as="geometry" />
        </mxCell>
        <mxCell id="sScY5Y3A5HVHYoLJD_x2-25" value="" style="shape=partialRectangle;overflow=hidden;connectable=0;fillColor=none;top=0;left=0;bottom=0;right=0;" vertex="1" parent="sScY5Y3A5HVHYoLJD_x2-24">
          <mxGeometry width="30" height="30" as="geometry">
            <mxRectangle width="30" height="30" as="alternateBounds" />
          </mxGeometry>
        </mxCell>
        <mxCell id="sScY5Y3A5HVHYoLJD_x2-26" value="" style="shape=partialRectangle;overflow=hidden;connectable=0;fillColor=none;top=0;left=0;bottom=0;right=0;align=left;spacingLeft=6;" vertex="1" parent="sScY5Y3A5HVHYoLJD_x2-24">
          <mxGeometry x="30" width="230" height="30" as="geometry">
            <mxRectangle width="230" height="30" as="alternateBounds" />
          </mxGeometry>
        </mxCell>
      </root>
    </mxGraphModel>
  </diagram>
</mxfile>
